<!--<?xml version="1.0" encoding="UTF-8"?>-->
<svg xmlns="http://www.w3.org/2000/svg" height="1.4em" id="Calque_1" data-name="Calque 1" viewBox="0 0 315.06 221.96">
  <path class="cls-2" d="m103.67,79.98c-2.8,0-5.09,2.09-5.09,4.65v46.5c0,2.56,2.29,4.65,5.09,4.65h122.08c2.8,0,5.09-2.09,5.09-4.65v-46.5c0-2.56-2.29-4.65-5.09-4.65h-122.08Zm-25.43,4.65c0-12.85,11.38-23.25,25.43-23.25h122.08c14.05,0,25.43,10.4,25.43,23.25v4.65c5.63,0,10.17,4.16,10.17,9.3v18.6c0,5.14-4.55,9.3-10.17,9.3v4.65c0,12.85-11.38,23.25-25.43,23.25h-122.08c-14.05,0-25.43-10.4-25.43-23.25v-46.5Z"/>
  <rect class="cls-1" x="152.51" y="14.24" width="24.41" height="183.21" rx="7.91" ry="7.91" transform="translate(83.17 -72.15) rotate(32.66)"/>
</svg>