<svg xmlns="http://www.w3.org/2000/svg" version="1.1" xmlns:xlink="http://www.w3.org/1999/xlink" xmlns:svgjs="http://svgjs.dev/svgjs" width="1440" height="560" preserveAspectRatio="none" viewBox="0 0 1440 560"><g mask="url(&quot;#SvgjsMask1005&quot;)" fill="none"><rect width="1440" height="560" x="0" y="0" fill="rgba(167, 200, 242, 1)"></rect><path d="M7.53 -64.09L72.48 -26.59L72.48 48.41L7.53 85.91L-57.42 48.41L-57.42 -26.59zM72.48 48.41L137.44 85.91L137.44 160.91L72.48 198.41L7.53 160.91L7.53 85.91zM7.53 385.91L72.48 423.41L72.48 498.41L7.53 535.91L-57.42 498.41L-57.42 423.41zM137.44 160.91L202.39 198.41L202.39 273.41L137.44 310.91L72.48 273.41L72.48 198.41zM202.39 273.41L267.34 310.91L267.34 385.91L202.39 423.41L137.44 385.91L137.44 310.91zM137.44 385.91L202.39 423.41L202.39 498.41L137.44 535.91L72.48 498.41L72.48 423.41zM267.34 -64.09L332.3 -26.59L332.3 48.41L267.34 85.91L202.39 48.41L202.39 -26.59zM332.3 498.41L397.25 535.91L397.25 610.91L332.3 648.41L267.34 610.91L267.34 535.91zM527.16 160.91L592.11 198.41L592.11 273.41L527.16 310.91L462.21 273.41L462.21 198.41zM592.11 273.41L657.07 310.91L657.07 385.91L592.11 423.41L527.16 385.91L527.16 310.91zM527.16 385.91L592.11 423.41L592.11 498.41L527.16 535.91L462.21 498.41L462.21 423.41zM722.02 273.41L786.98 310.91L786.98 385.91L722.02 423.41L657.07 385.91L657.07 310.91zM657.07 385.91L722.02 423.41L722.02 498.41L657.07 535.91L592.11 498.41L592.11 423.41zM786.97 -64.09L851.93 -26.59L851.93 48.41L786.97 85.91L722.02 48.41L722.02 -26.59zM786.97 385.91L851.93 423.41L851.93 498.41L786.97 535.91L722.02 498.41L722.02 423.41zM851.93 498.41L916.88 535.91L916.88 610.91L851.93 648.41L786.97 610.91L786.97 535.91zM981.84 273.41L1046.79 310.91L1046.79 385.91L981.84 423.41L916.88 385.91L916.88 310.91zM1046.79 -64.09L1111.74 -26.59L1111.74 48.41L1046.79 85.91L981.84 48.41L981.84 -26.59zM1046.79 160.91L1111.74 198.41L1111.74 273.41L1046.79 310.91L981.84 273.41L981.84 198.41zM1111.74 273.41L1176.7 310.91L1176.7 385.91L1111.74 423.41L1046.79 385.91L1046.79 310.91zM1046.79 385.91L1111.74 423.41L1111.74 498.41L1046.79 535.91L981.84 498.41L981.84 423.41zM1241.65 48.41L1306.6 85.91L1306.6 160.91L1241.65 198.41L1176.7 160.91L1176.7 85.91zM1176.7 160.91L1241.65 198.41L1241.65 273.41L1176.7 310.91L1111.74 273.41L1111.74 198.41zM1176.7 385.91L1241.65 423.41L1241.65 498.41L1176.7 535.91L1111.74 498.41L1111.74 423.41zM1371.56 48.41L1436.51 85.91L1436.51 160.91L1371.56 198.41L1306.61 160.91L1306.61 85.91zM1371.56 273.41L1436.51 310.91L1436.51 385.91L1371.56 423.41L1306.61 385.91L1306.61 310.91zM1306.61 385.91L1371.56 423.41L1371.56 498.41L1306.61 535.91L1241.65 498.41L1241.65 423.41zM1436.51 -64.09L1501.47 -26.59L1501.47 48.41L1436.51 85.91L1371.56 48.41L1371.56 -26.59zM1501.47 273.41L1566.42 310.91L1566.42 385.91L1501.47 423.41L1436.51 385.91L1436.51 310.91z" stroke="rgba(191, 137, 90, 1)" stroke-width="2"></path><path d="M0.03 -64.09 a7.5 7.5 0 1 0 15 0 a7.5 7.5 0 1 0 -15 0zM64.98 -26.59 a7.5 7.5 0 1 0 15 0 a7.5 7.5 0 1 0 -15 0zM64.98 48.41 a7.5 7.5 0 1 0 15 0 a7.5 7.5 0 1 0 -15 0zM0.03 85.91 a7.5 7.5 0 1 0 15 0 a7.5 7.5 0 1 0 -15 0zM-64.92 48.41 a7.5 7.5 0 1 0 15 0 a7.5 7.5 0 1 0 -15 0zM-64.92 -26.59 a7.5 7.5 0 1 0 15 0 a7.5 7.5 0 1 0 -15 0zM129.94 85.91 a7.5 7.5 0 1 0 15 0 a7.5 7.5 0 1 0 -15 0zM129.94 160.91 a7.5 7.5 0 1 0 15 0 a7.5 7.5 0 1 0 -15 0zM64.98 198.41 a7.5 7.5 0 1 0 15 0 a7.5 7.5 0 1 0 -15 0zM0.03 160.91 a7.5 7.5 0 1 0 15 0 a7.5 7.5 0 1 0 -15 0zM0.03 385.91 a7.5 7.5 0 1 0 15 0 a7.5 7.5 0 1 0 -15 0zM64.98 423.41 a7.5 7.5 0 1 0 15 0 a7.5 7.5 0 1 0 -15 0zM64.98 498.41 a7.5 7.5 0 1 0 15 0 a7.5 7.5 0 1 0 -15 0zM0.03 535.91 a7.5 7.5 0 1 0 15 0 a7.5 7.5 0 1 0 -15 0zM-64.92 498.41 a7.5 7.5 0 1 0 15 0 a7.5 7.5 0 1 0 -15 0zM-64.92 423.41 a7.5 7.5 0 1 0 15 0 a7.5 7.5 0 1 0 -15 0zM194.89 198.41 a7.5 7.5 0 1 0 15 0 a7.5 7.5 0 1 0 -15 0zM194.89 273.41 a7.5 7.5 0 1 0 15 0 a7.5 7.5 0 1 0 -15 0zM129.94 310.91 a7.5 7.5 0 1 0 15 0 a7.5 7.5 0 1 0 -15 0zM64.98 273.41 a7.5 7.5 0 1 0 15 0 a7.5 7.5 0 1 0 -15 0zM259.84 310.91 a7.5 7.5 0 1 0 15 0 a7.5 7.5 0 1 0 -15 0zM259.84 385.91 a7.5 7.5 0 1 0 15 0 a7.5 7.5 0 1 0 -15 0zM194.89 423.41 a7.5 7.5 0 1 0 15 0 a7.5 7.5 0 1 0 -15 0zM129.94 385.91 a7.5 7.5 0 1 0 15 0 a7.5 7.5 0 1 0 -15 0zM194.89 498.41 a7.5 7.5 0 1 0 15 0 a7.5 7.5 0 1 0 -15 0zM129.94 535.91 a7.5 7.5 0 1 0 15 0 a7.5 7.5 0 1 0 -15 0zM259.84 -64.09 a7.5 7.5 0 1 0 15 0 a7.5 7.5 0 1 0 -15 0zM324.8 -26.59 a7.5 7.5 0 1 0 15 0 a7.5 7.5 0 1 0 -15 0zM324.8 48.41 a7.5 7.5 0 1 0 15 0 a7.5 7.5 0 1 0 -15 0zM259.84 85.91 a7.5 7.5 0 1 0 15 0 a7.5 7.5 0 1 0 -15 0zM194.89 48.41 a7.5 7.5 0 1 0 15 0 a7.5 7.5 0 1 0 -15 0zM194.89 -26.59 a7.5 7.5 0 1 0 15 0 a7.5 7.5 0 1 0 -15 0zM324.8 498.41 a7.5 7.5 0 1 0 15 0 a7.5 7.5 0 1 0 -15 0zM389.75 535.91 a7.5 7.5 0 1 0 15 0 a7.5 7.5 0 1 0 -15 0zM389.75 610.91 a7.5 7.5 0 1 0 15 0 a7.5 7.5 0 1 0 -15 0zM324.8 648.41 a7.5 7.5 0 1 0 15 0 a7.5 7.5 0 1 0 -15 0zM259.84 610.91 a7.5 7.5 0 1 0 15 0 a7.5 7.5 0 1 0 -15 0zM259.84 535.91 a7.5 7.5 0 1 0 15 0 a7.5 7.5 0 1 0 -15 0zM519.66 160.91 a7.5 7.5 0 1 0 15 0 a7.5 7.5 0 1 0 -15 0zM584.61 198.41 a7.5 7.5 0 1 0 15 0 a7.5 7.5 0 1 0 -15 0zM584.61 273.41 a7.5 7.5 0 1 0 15 0 a7.5 7.5 0 1 0 -15 0zM519.66 310.91 a7.5 7.5 0 1 0 15 0 a7.5 7.5 0 1 0 -15 0zM454.71 273.41 a7.5 7.5 0 1 0 15 0 a7.5 7.5 0 1 0 -15 0zM454.71 198.41 a7.5 7.5 0 1 0 15 0 a7.5 7.5 0 1 0 -15 0zM649.57 310.91 a7.5 7.5 0 1 0 15 0 a7.5 7.5 0 1 0 -15 0zM649.57 385.91 a7.5 7.5 0 1 0 15 0 a7.5 7.5 0 1 0 -15 0zM584.61 423.41 a7.5 7.5 0 1 0 15 0 a7.5 7.5 0 1 0 -15 0zM519.66 385.91 a7.5 7.5 0 1 0 15 0 a7.5 7.5 0 1 0 -15 0zM584.61 498.41 a7.5 7.5 0 1 0 15 0 a7.5 7.5 0 1 0 -15 0zM519.66 535.91 a7.5 7.5 0 1 0 15 0 a7.5 7.5 0 1 0 -15 0zM454.71 498.41 a7.5 7.5 0 1 0 15 0 a7.5 7.5 0 1 0 -15 0zM454.71 423.41 a7.5 7.5 0 1 0 15 0 a7.5 7.5 0 1 0 -15 0zM714.52 273.41 a7.5 7.5 0 1 0 15 0 a7.5 7.5 0 1 0 -15 0zM779.48 310.91 a7.5 7.5 0 1 0 15 0 a7.5 7.5 0 1 0 -15 0zM779.48 385.91 a7.5 7.5 0 1 0 15 0 a7.5 7.5 0 1 0 -15 0zM714.52 423.41 a7.5 7.5 0 1 0 15 0 a7.5 7.5 0 1 0 -15 0zM714.52 498.41 a7.5 7.5 0 1 0 15 0 a7.5 7.5 0 1 0 -15 0zM649.57 535.91 a7.5 7.5 0 1 0 15 0 a7.5 7.5 0 1 0 -15 0zM779.47 -64.09 a7.5 7.5 0 1 0 15 0 a7.5 7.5 0 1 0 -15 0zM844.43 -26.59 a7.5 7.5 0 1 0 15 0 a7.5 7.5 0 1 0 -15 0zM844.43 48.41 a7.5 7.5 0 1 0 15 0 a7.5 7.5 0 1 0 -15 0zM779.47 85.91 a7.5 7.5 0 1 0 15 0 a7.5 7.5 0 1 0 -15 0zM714.52 48.41 a7.5 7.5 0 1 0 15 0 a7.5 7.5 0 1 0 -15 0zM714.52 -26.59 a7.5 7.5 0 1 0 15 0 a7.5 7.5 0 1 0 -15 0zM779.47 385.91 a7.5 7.5 0 1 0 15 0 a7.5 7.5 0 1 0 -15 0zM844.43 423.41 a7.5 7.5 0 1 0 15 0 a7.5 7.5 0 1 0 -15 0zM844.43 498.41 a7.5 7.5 0 1 0 15 0 a7.5 7.5 0 1 0 -15 0zM779.47 535.91 a7.5 7.5 0 1 0 15 0 a7.5 7.5 0 1 0 -15 0zM909.38 535.91 a7.5 7.5 0 1 0 15 0 a7.5 7.5 0 1 0 -15 0zM909.38 610.91 a7.5 7.5 0 1 0 15 0 a7.5 7.5 0 1 0 -15 0zM844.43 648.41 a7.5 7.5 0 1 0 15 0 a7.5 7.5 0 1 0 -15 0zM779.47 610.91 a7.5 7.5 0 1 0 15 0 a7.5 7.5 0 1 0 -15 0zM974.34 273.41 a7.5 7.5 0 1 0 15 0 a7.5 7.5 0 1 0 -15 0zM1039.29 310.91 a7.5 7.5 0 1 0 15 0 a7.5 7.5 0 1 0 -15 0zM1039.29 385.91 a7.5 7.5 0 1 0 15 0 a7.5 7.5 0 1 0 -15 0zM974.34 423.41 a7.5 7.5 0 1 0 15 0 a7.5 7.5 0 1 0 -15 0zM909.38 385.91 a7.5 7.5 0 1 0 15 0 a7.5 7.5 0 1 0 -15 0zM909.38 310.91 a7.5 7.5 0 1 0 15 0 a7.5 7.5 0 1 0 -15 0zM1039.29 -64.09 a7.5 7.5 0 1 0 15 0 a7.5 7.5 0 1 0 -15 0zM1104.24 -26.59 a7.5 7.5 0 1 0 15 0 a7.5 7.5 0 1 0 -15 0zM1104.24 48.41 a7.5 7.5 0 1 0 15 0 a7.5 7.5 0 1 0 -15 0zM1039.29 85.91 a7.5 7.5 0 1 0 15 0 a7.5 7.5 0 1 0 -15 0zM974.34 48.41 a7.5 7.5 0 1 0 15 0 a7.5 7.5 0 1 0 -15 0zM974.34 -26.59 a7.5 7.5 0 1 0 15 0 a7.5 7.5 0 1 0 -15 0zM1039.29 160.91 a7.5 7.5 0 1 0 15 0 a7.5 7.5 0 1 0 -15 0zM1104.24 198.41 a7.5 7.5 0 1 0 15 0 a7.5 7.5 0 1 0 -15 0zM1104.24 273.41 a7.5 7.5 0 1 0 15 0 a7.5 7.5 0 1 0 -15 0zM974.34 198.41 a7.5 7.5 0 1 0 15 0 a7.5 7.5 0 1 0 -15 0zM1169.2 310.91 a7.5 7.5 0 1 0 15 0 a7.5 7.5 0 1 0 -15 0zM1169.2 385.91 a7.5 7.5 0 1 0 15 0 a7.5 7.5 0 1 0 -15 0zM1104.24 423.41 a7.5 7.5 0 1 0 15 0 a7.5 7.5 0 1 0 -15 0zM1104.24 498.41 a7.5 7.5 0 1 0 15 0 a7.5 7.5 0 1 0 -15 0zM1039.29 535.91 a7.5 7.5 0 1 0 15 0 a7.5 7.5 0 1 0 -15 0zM974.34 498.41 a7.5 7.5 0 1 0 15 0 a7.5 7.5 0 1 0 -15 0zM1234.15 48.41 a7.5 7.5 0 1 0 15 0 a7.5 7.5 0 1 0 -15 0zM1299.1 85.91 a7.5 7.5 0 1 0 15 0 a7.5 7.5 0 1 0 -15 0zM1299.1 160.91 a7.5 7.5 0 1 0 15 0 a7.5 7.5 0 1 0 -15 0zM1234.15 198.41 a7.5 7.5 0 1 0 15 0 a7.5 7.5 0 1 0 -15 0zM1169.2 160.91 a7.5 7.5 0 1 0 15 0 a7.5 7.5 0 1 0 -15 0zM1169.2 85.91 a7.5 7.5 0 1 0 15 0 a7.5 7.5 0 1 0 -15 0zM1234.15 273.41 a7.5 7.5 0 1 0 15 0 a7.5 7.5 0 1 0 -15 0zM1234.15 423.41 a7.5 7.5 0 1 0 15 0 a7.5 7.5 0 1 0 -15 0zM1234.15 498.41 a7.5 7.5 0 1 0 15 0 a7.5 7.5 0 1 0 -15 0zM1169.2 535.91 a7.5 7.5 0 1 0 15 0 a7.5 7.5 0 1 0 -15 0zM1364.06 48.41 a7.5 7.5 0 1 0 15 0 a7.5 7.5 0 1 0 -15 0zM1429.01 85.91 a7.5 7.5 0 1 0 15 0 a7.5 7.5 0 1 0 -15 0zM1429.01 160.91 a7.5 7.5 0 1 0 15 0 a7.5 7.5 0 1 0 -15 0zM1364.06 198.41 a7.5 7.5 0 1 0 15 0 a7.5 7.5 0 1 0 -15 0zM1299.11 160.91 a7.5 7.5 0 1 0 15 0 a7.5 7.5 0 1 0 -15 0zM1299.11 85.91 a7.5 7.5 0 1 0 15 0 a7.5 7.5 0 1 0 -15 0zM1364.06 273.41 a7.5 7.5 0 1 0 15 0 a7.5 7.5 0 1 0 -15 0zM1429.01 310.91 a7.5 7.5 0 1 0 15 0 a7.5 7.5 0 1 0 -15 0zM1429.01 385.91 a7.5 7.5 0 1 0 15 0 a7.5 7.5 0 1 0 -15 0zM1364.06 423.41 a7.5 7.5 0 1 0 15 0 a7.5 7.5 0 1 0 -15 0zM1299.11 385.91 a7.5 7.5 0 1 0 15 0 a7.5 7.5 0 1 0 -15 0zM1299.11 310.91 a7.5 7.5 0 1 0 15 0 a7.5 7.5 0 1 0 -15 0zM1364.06 498.41 a7.5 7.5 0 1 0 15 0 a7.5 7.5 0 1 0 -15 0zM1299.11 535.91 a7.5 7.5 0 1 0 15 0 a7.5 7.5 0 1 0 -15 0zM1429.01 -64.09 a7.5 7.5 0 1 0 15 0 a7.5 7.5 0 1 0 -15 0zM1493.97 -26.59 a7.5 7.5 0 1 0 15 0 a7.5 7.5 0 1 0 -15 0zM1493.97 48.41 a7.5 7.5 0 1 0 15 0 a7.5 7.5 0 1 0 -15 0zM1364.06 -26.59 a7.5 7.5 0 1 0 15 0 a7.5 7.5 0 1 0 -15 0zM1493.97 273.41 a7.5 7.5 0 1 0 15 0 a7.5 7.5 0 1 0 -15 0zM1558.92 310.91 a7.5 7.5 0 1 0 15 0 a7.5 7.5 0 1 0 -15 0zM1558.92 385.91 a7.5 7.5 0 1 0 15 0 a7.5 7.5 0 1 0 -15 0zM1493.97 423.41 a7.5 7.5 0 1 0 15 0 a7.5 7.5 0 1 0 -15 0z" fill="rgba(191, 137, 90, 1)"></path><path d="M69.04 26.56L112.34 51.56L112.34 101.56L69.04 126.56L25.74 101.56L25.74 51.56zM69.04 176.56L112.34 201.56L112.34 251.56L69.04 276.56L25.74 251.56L25.74 201.56zM25.74 401.56L69.04 426.56L69.04 476.56L25.74 501.56L-17.56 476.56L-17.56 426.56zM69.04 476.56L112.34 501.56L112.34 551.56L69.04 576.56L25.74 551.56L25.74 501.56zM112.34 101.56L155.65 126.56L155.65 176.56L112.34 201.56L69.04 176.56L69.04 126.56zM155.65 476.56L198.95 501.56L198.95 551.56L155.65 576.56L112.34 551.56L112.34 501.56zM242.25 26.56L285.56 51.56L285.56 101.56L242.25 126.56L198.95 101.56L198.95 51.56zM242.25 176.56L285.56 201.56L285.56 251.56L242.25 276.56L198.95 251.56L198.95 201.56zM328.86 26.56L372.16 51.56L372.16 101.56L328.86 126.56L285.56 101.56L285.56 51.56zM372.16 101.56L415.46 126.56L415.46 176.56L372.16 201.56L328.86 176.56L328.86 126.56zM415.46 176.56L458.77 201.56L458.77 251.56L415.46 276.56L372.16 251.56L372.16 201.56zM415.46 326.56L458.77 351.56L458.77 401.56L415.46 426.56L372.16 401.56L372.16 351.56zM415.46 476.56L458.77 501.56L458.77 551.56L415.46 576.56L372.16 551.56L372.16 501.56zM458.77 -48.44L502.07 -23.44L502.07 26.56L458.77 51.56L415.46 26.56L415.46 -23.44zM458.77 251.56L502.07 276.56L502.07 326.56L458.77 351.56L415.46 326.56L415.46 276.56zM458.77 401.56L502.07 426.56L502.07 476.56L458.77 501.56L415.46 476.56L415.46 426.56zM761.88 176.56L805.19 201.56L805.19 251.56L761.88 276.56L718.58 251.56L718.58 201.56zM761.88 326.56L805.19 351.56L805.19 401.56L761.88 426.56L718.58 401.56L718.58 351.56zM848.49 326.56L891.79 351.56L891.79 401.56L848.49 426.56L805.19 401.56L805.19 351.56zM848.49 476.56L891.79 501.56L891.79 551.56L848.49 576.56L805.19 551.56L805.19 501.56zM891.79 101.56L935.09 126.56L935.09 176.56L891.79 201.56L848.49 176.56L848.49 126.56zM891.79 251.56L935.09 276.56L935.09 326.56L891.79 351.56L848.49 326.56L848.49 276.56zM1108.3 176.56L1151.61 201.56L1151.61 251.56L1108.3 276.56L1065 251.56L1065 201.56zM1065 401.56L1108.3 426.56L1108.3 476.56L1065 501.56L1021.7 476.56L1021.7 426.56zM1151.61 -48.44L1194.91 -23.44L1194.91 26.56L1151.61 51.56L1108.3 26.56L1108.3 -23.44zM1194.91 176.56L1238.21 201.56L1238.21 251.56L1194.91 276.56L1151.61 251.56L1151.61 201.56zM1151.61 251.56L1194.91 276.56L1194.91 326.56L1151.61 351.56L1108.3 326.56L1108.3 276.56zM1151.61 401.56L1194.91 426.56L1194.91 476.56L1151.61 501.56L1108.3 476.56L1108.3 426.56zM1194.91 476.56L1238.21 501.56L1238.21 551.56L1194.91 576.56L1151.61 551.56L1151.61 501.56zM1238.21 -48.44L1281.51 -23.44L1281.51 26.56L1238.21 51.56L1194.91 26.56L1194.91 -23.44zM1281.51 176.56L1324.82 201.56L1324.82 251.56L1281.51 276.56L1238.21 251.56L1238.21 201.56zM1368.12 26.56L1411.42 51.56L1411.42 101.56L1368.12 126.56L1324.82 101.56L1324.82 51.56zM1324.82 251.56L1368.12 276.56L1368.12 326.56L1324.82 351.56L1281.51 326.56L1281.51 276.56zM1368.12 476.56L1411.42 501.56L1411.42 551.56L1368.12 576.56L1324.82 551.56L1324.82 501.56z" stroke="rgba(6, 80, 156, 0.93)" stroke-width="2"></path></g><defs><mask id="SvgjsMask1005"><rect width="1440" height="560" fill="#ffffff"></rect></mask></defs></svg>