<svg xmlns="http://www.w3.org/2000/svg" version="1.1" xmlns:xlink="http://www.w3.org/1999/xlink" xmlns:svgjs="http://svgjs.dev/svgjs" width="1440" height="250" preserveAspectRatio="none" viewBox="0 0 1440 250"><g mask="url(&quot;#SvgjsMask1003&quot;)" fill="none"><rect width="1440" height="250" x="0" y="0" fill="rgba(167, 200, 242, 1)"></rect><path d="M13 250L263 0L306.5 0L56.5 250z" fill="url(&quot;#SvgjsLinearGradient1004&quot;)"></path><path d="M273.6 250L523.6 0L642.1 0L392.1 250z" fill="url(&quot;#SvgjsLinearGradient1004&quot;)"></path><path d="M494.20000000000005 250L744.2 0L924.2 0L674.2 250z" fill="url(&quot;#SvgjsLinearGradient1004&quot;)"></path><path d="M754.8000000000001 250L1004.8000000000001 0L1252.3000000000002 0L1002.3000000000001 250z" fill="url(&quot;#SvgjsLinearGradient1004&quot;)"></path><path d="M1422 250L1172 0L906.5 0L1156.5 250z" fill="url(&quot;#SvgjsLinearGradient1005&quot;)"></path><path d="M1161.4 250L911.4000000000001 0L636.9000000000001 0L886.9000000000001 250z" fill="url(&quot;#SvgjsLinearGradient1005&quot;)"></path><path d="M953.8 250L703.8 0L456.29999999999995 0L706.3 250z" fill="url(&quot;#SvgjsLinearGradient1005&quot;)"></path><path d="M715.1999999999999 250L465.19999999999993 0L147.19999999999993 0L397.19999999999993 250z" fill="url(&quot;#SvgjsLinearGradient1005&quot;)"></path><path d="M1266.0029851859028 250L1440 76.00298518590287L1440 250z" fill="url(&quot;#SvgjsLinearGradient1004&quot;)"></path><path d="M0 250L173.99701481409713 250L 0 76.00298518590287z" fill="url(&quot;#SvgjsLinearGradient1005&quot;)"></path></g><defs><mask id="SvgjsMask1003"><rect width="1440" height="250" fill="#ffffff"></rect></mask><linearGradient x1="0%" y1="100%" x2="100%" y2="0%" id="SvgjsLinearGradient1004"><stop stop-color="rgba(15, 70, 185, 0.2)" offset="0"></stop><stop stop-opacity="0" stop-color="rgba(15, 70, 185, 0.2)" offset="0.66"></stop></linearGradient><linearGradient x1="100%" y1="100%" x2="0%" y2="0%" id="SvgjsLinearGradient1005"><stop stop-color="rgba(15, 70, 185, 0.2)" offset="0"></stop><stop stop-opacity="0" stop-color="rgba(15, 70, 185, 0.2)" offset="0.66"></stop></linearGradient></defs></svg>